<?xml version="1.0" encoding="utf-8"?>
<!-- Generator: Adobe Illustrator 19.0.0, SVG Export Plug-In . SVG Version: 6.00 Build 0)  -->
<svg version="1.1" id="图层_1" xmlns="http://www.w3.org/2000/svg" xmlns:xlink="http://www.w3.org/1999/xlink" x="0px" y="0px"
	 viewBox="0 0 200 50" style="enable-background:new 0 0 200 50;" xml:space="preserve">
<style type="text/css">
	.st0{fill:#040000;}
</style>
<g>
	<g id="XMLID_509_">
		<path id="XMLID_571_" d="M3.9,47.1c-2.5,0-4.2-1.8-4.2-4.2c0-2.6,1.8-4.4,4.3-4.4c2.5,0,4.2,1.8,4.2,4.2
			C8.3,45.5,6.3,47.1,3.9,47.1L3.9,47.1z M4,46.2c1.9,0,3.1-1.5,3.1-3.4c0-1.7-1.1-3.4-3.1-3.4c-2,0-3.1,1.6-3.1,3.5
			C0.9,44.7,2.1,46.2,4,46.2L4,46.2z"/>
		<path id="XMLID_569_" d="M16.2,46.7c-0.4,0.2-1.3,0.5-2.5,0.5c-2.6,0-4.5-1.5-4.5-4.2c0-2.4,1.8-4.4,4.8-4.4c1.2,0,2,0.3,2.3,0.4
			L16,39.8c-0.5-0.2-1.2-0.4-1.9-0.4c-2.3,0-3.7,1.4-3.7,3.4c0,1.9,1.2,3.3,3.6,3.3c0.8,0,1.5-0.1,2.1-0.4L16.2,46.7z"/>
		<path id="XMLID_567_" d="M22.4,43.1h-3.6v3h4V47h-5.1v-8.3h4.9v0.9h-3.8v2.6h3.6V43.1z"/>
		<path id="XMLID_564_" d="M25.8,44.3l-1,2.6h-1.2l3.1-8.3h1.4l3.2,8.3h-1.2l-1-2.6H25.8z M28.8,43.5L27.9,41
			c-0.2-0.5-0.3-1-0.5-1.4h0C27.3,40,27.1,40.5,27,41L26,43.5H28.8z"/>
		<path id="XMLID_562_" d="M32.6,47v-8.3h1.3l3,4.3c0.7,1,1.2,1.8,1.6,2.6l0,0c-0.1-1-0.1-2-0.1-3.3v-3.6h1.1V47h-1.1l-3-4.3
			c-0.7-1-1.3-1.9-1.7-2.8l0,0c0.1,1,0.1,2,0.1,3.3V47H32.6z"/>
		<path id="XMLID_559_" d="M44.3,38.8c0.8-0.1,1.6-0.2,2.6-0.2c1.8,0,3,0.4,3.8,1.2c0.8,0.7,1.2,1.6,1.2,2.8c0,1.2-0.4,2.3-1.3,3.1
			c-0.9,0.8-2.3,1.3-4.1,1.3c-0.9,0-1.6,0-2.2-0.1V38.8z M45.4,46.1c0.3,0,0.8,0.1,1.3,0.1c2.7,0,4-1.5,4-3.5c0-1.9-1.2-3.2-3.8-3.2
			c-0.7,0-1.2,0.1-1.5,0.1V46.1z"/>
		<path id="XMLID_557_" d="M54.5,38.7V47h-1.1v-8.3H54.5z"/>
		<path id="XMLID_555_" d="M63.6,46.5c-0.5,0.2-1.6,0.5-2.9,0.5c-1.4,0-2.6-0.4-3.5-1.2c-0.8-0.7-1.2-1.8-1.2-3
			c0-2.2,1.7-4.3,4.9-4.3c1.1,0,2,0.2,2.4,0.4L63,39.9c-0.5-0.2-1.2-0.4-2.1-0.4c-2.3,0-3.7,1.4-3.7,3.3c0,1.9,1.4,3.3,3.6,3.3
			c0.8,0,1.4-0.1,1.7-0.3v-2.4h-1.9v-0.9h3V46.5z"/>
		<path id="XMLID_553_" d="M66.4,38.7V47h-1.1v-8.3H66.4z"/>
		<path id="XMLID_551_" d="M70.2,39.6h-2.9v-0.9h6.9v0.9h-2.9V47h-1.1V39.6z"/>
		<path id="XMLID_548_" d="M75.5,44.3l-1,2.6h-1.2l3.1-8.3h1.4L81,47h-1.2l-1-2.6H75.5z M78.6,43.5L77.6,41c-0.2-0.5-0.3-1-0.5-1.4
			h0C77,40,76.9,40.5,76.7,41l-0.9,2.5H78.6z"/>
		<path id="XMLID_546_" d="M82.3,38.7h1.1V46h3.9V47h-5.1V38.7z"/>
		<path id="XMLID_544_" d="M91.4,45.6c0.5,0.3,1.3,0.6,2.2,0.6c1.2,0,1.9-0.6,1.9-1.4c0-0.8-0.5-1.2-1.7-1.6
			c-1.6-0.5-2.4-1.2-2.4-2.4c0-1.3,1.1-2.3,2.9-2.3c1,0,1.6,0.2,2.1,0.4l-0.3,0.9c-0.3-0.2-0.9-0.4-1.8-0.4c-1.3,0-1.7,0.7-1.7,1.3
			c0,0.8,0.5,1.2,1.8,1.6c1.5,0.5,2.3,1.1,2.3,2.5c0,1.2-0.9,2.4-3.1,2.4c-0.9,0-1.8-0.3-2.3-0.6L91.4,45.6z"/>
		<path id="XMLID_541_" d="M101.8,47.1c-2.5,0-4.2-1.8-4.2-4.2c0-2.6,1.8-4.4,4.3-4.4c2.5,0,4.2,1.8,4.2,4.2
			C106.1,45.5,104.1,47.1,101.8,47.1L101.8,47.1z M101.8,46.2c1.9,0,3.1-1.5,3.1-3.4c0-1.7-1.1-3.4-3.1-3.4c-2,0-3.1,1.6-3.1,3.5
			C98.7,44.7,99.9,46.2,101.8,46.2L101.8,46.2z"/>
		<path id="XMLID_539_" d="M107.6,38.7h1.1V46h3.9V47h-5.1V38.7z"/>
		<path id="XMLID_537_" d="M114.5,38.7v4.7c0,2,0.9,2.8,2.2,2.8c1.4,0,2.3-0.9,2.3-2.8v-4.7h1.1v4.7c0,2.7-1.5,3.8-3.5,3.8
			c-1.8,0-3.3-1-3.3-3.8v-4.7H114.5z"/>
		<path id="XMLID_535_" d="M124,39.6h-2.9v-0.9h6.9v0.9h-2.9V47H124V39.6z"/>
		<path id="XMLID_533_" d="M130,38.7V47h-1.1v-8.3H130z"/>
		<path id="XMLID_530_" d="M135.6,47.1c-2.5,0-4.2-1.8-4.2-4.2c0-2.6,1.8-4.4,4.3-4.4c2.5,0,4.2,1.8,4.2,4.2
			C140,45.5,138,47.1,135.6,47.1L135.6,47.1z M135.7,46.2c1.9,0,3.1-1.5,3.1-3.4c0-1.7-1.1-3.4-3.1-3.4c-2,0-3.1,1.6-3.1,3.5
			C132.6,44.7,133.8,46.2,135.7,46.2L135.7,46.2z"/>
		<path id="XMLID_528_" d="M141.4,47v-8.3h1.3l3,4.3c0.7,1,1.2,1.8,1.6,2.6l0,0c-0.1-1-0.1-2-0.1-3.3v-3.6h1.1V47h-1.1l-3-4.3
			c-0.7-1-1.3-1.9-1.7-2.8l0,0c0.1,1,0.1,2,0.1,3.3V47H141.4z"/>
		<path id="XMLID_526_" d="M159.7,46.7c-0.4,0.2-1.3,0.5-2.5,0.5c-2.6,0-4.5-1.5-4.5-4.2c0-2.4,1.8-4.4,4.8-4.4c1.2,0,2,0.3,2.3,0.4
			l-0.3,0.9c-0.5-0.2-1.2-0.4-1.9-0.4c-2.3,0-3.7,1.4-3.7,3.4c0,1.9,1.2,3.3,3.6,3.3c0.8,0,1.5-0.1,2.1-0.4L159.7,46.7z"/>
		<path id="XMLID_523_" d="M164.5,47.1c-2.5,0-4.2-1.8-4.2-4.2c0-2.6,1.8-4.4,4.3-4.4c2.5,0,4.2,1.8,4.2,4.2
			C168.8,45.5,166.9,47.1,164.5,47.1L164.5,47.1z M164.6,46.2c1.9,0,3.1-1.5,3.1-3.4c0-1.7-1.1-3.4-3.1-3.4c-2,0-3.1,1.6-3.1,3.5
			C161.5,44.7,162.7,46.2,164.6,46.2L164.6,46.2z"/>
		<path id="XMLID_521_" d="M170.3,47.1c-0.4,0-0.8-0.4-0.8-0.8c0-0.5,0.3-0.8,0.8-0.8c0.5,0,0.8,0.3,0.8,0.8
			C171.1,46.8,170.8,47.1,170.3,47.1L170.3,47.1z"/>
		<path id="XMLID_519_" d="M171.7,48.5c0.3-0.8,0.6-2.1,0.8-3l1.2-0.1c-0.3,1.1-0.8,2.4-1.2,3L171.7,48.5z"/>
		<path id="XMLID_517_" d="M178,38.7h1.1V46h3.9V47H178V38.7z"/>
		<path id="XMLID_515_" d="M184.9,39.6h-2.9v-0.9h6.9v0.9H186V47h-1.1V39.6z"/>
		<path id="XMLID_512_" d="M189.8,38.8c0.8-0.1,1.6-0.2,2.6-0.2c1.8,0,3,0.4,3.8,1.2c0.8,0.7,1.2,1.6,1.2,2.8c0,1.2-0.4,2.3-1.3,3.1
			c-0.9,0.8-2.3,1.3-4.1,1.3c-0.9,0-1.6,0-2.2-0.1V38.8z M190.9,46.1c0.3,0,0.8,0.1,1.3,0.1c2.7,0,4-1.5,4-3.5
			c0-1.9-1.2-3.2-3.8-3.2c-0.7,0-1.2,0.1-1.5,0.1V46.1z"/>
		<path id="XMLID_510_" d="M199,47.1c-0.4,0-0.8-0.4-0.8-0.8c0-0.5,0.3-0.8,0.8-0.8c0.5,0,0.8,0.3,0.8,0.8
			C199.7,46.8,199.4,47.1,199,47.1L199,47.1z"/>
	</g>
</g>
<g>
	<g>
		<path class="st0" d="M1,2.5c2.5-0.3,5.5-0.6,8.7-0.6c5.9,0,10.1,1.4,12.8,3.9c2.6,2.4,4,5.5,4,9.5c0,3.9-1.4,7.7-4.2,10.5
			C19.3,28.5,14.5,30,8.4,30c-3,0-5.3-0.1-7.5-0.3V2.5z M4.7,26.9c1.1,0.2,2.7,0.2,4.4,0.2c9.1,0,13.4-4.8,13.4-11.6
			C22.6,9,18.3,4.8,9.8,4.8c-2.3,0-4,0.2-5.1,0.4V26.9z"/>
		<path class="st0" d="M33,2.1v27.6h-3.7V2.1H33z"/>
		<path class="st0" d="M61.1,28.3C59.3,29,55.8,30,51.4,30c-4.8,0-8.6-1.2-11.6-4c-2.5-2.3-4-6-4-10c0-7.4,5.7-14.2,16.4-14.2
			c3.7,0,6.6,0.8,7.9,1.4l-0.9,3c-1.7-0.8-3.9-1.4-7.1-1.4c-7.8,0-12.4,4.6-12.4,11c0,6.5,4.5,11.1,12,11.1c2.7,0,4.6-0.4,5.7-0.9
			v-8h-6.3v-3h10V28.3z"/>
		<path class="st0" d="M68.6,2.1v27.6h-3.7V2.1H68.6z"/>
		<path class="st0" d="M85.4,30.2c-8.2,0-14-5.9-14-14c0-8.6,6.1-14.6,14.3-14.6c8.5,0,14.1,6,14.1,14
			C99.8,24.8,93.3,30.2,85.4,30.2L85.4,30.2z M85.6,27.3c6.4,0,10.3-4.9,10.3-11.5c0-5.6-3.5-11.2-10.2-11.2
			c-6.8,0-10.3,5.4-10.3,11.6C75.4,22.1,79.3,27.3,85.6,27.3L85.6,27.3z"/>
		<path class="st0" d="M124.4,28.7c-1.4,0.7-4.5,1.5-8.4,1.5c-8.6,0-15.1-5.1-15.1-14.1c0-7.9,6-14.5,16-14.5c4,0,6.5,0.9,7.6,1.4
			l-0.9,3c-1.6-0.7-3.9-1.3-6.5-1.3c-7.7,0-12.2,4.5-12.2,11.4c0,6.2,4.1,11,11.9,11c2.5,0,5.1-0.5,6.8-1.3L124.4,28.7z"/>
		<path class="st0" d="M131,26.7h13.4v3h-17.1V2.1h16.4v3H131V26.7"/>
		<path class="st0" d="M157.5,5.1l-8.6,24.6H145l10.4-27.6h4.5l10.5,27.6h-4.1L157.5,5.1 M157.6,5.1 M157.5,5.1 M157.6,5.1
			L157.6,5.1"/>
		<path class="st0" d="M172.7,29.7V2.1h4.2L187,16.4c2.3,3.3,4,6,5.4,8.8l0.1,0c-0.4-3.5-0.4-6.8-0.4-10.9V2.1h3.5v27.6h-3.8
			l-10-14.2c-2.2-3.2-4.3-6.4-5.8-9.2l-0.1,0c0.2,3.4,0.2,6.7,0.2,10.9v12.5H172.7z"/>
	</g>
	<path id="XMLID_1_" class="st0" d="M131,14.7c13.6,4.1,18.4-6.5,30.8,2.7C148.9,13.4,143.8,24.1,131,14.7z"/>
</g>
</svg>
